<?xml version="1.0" encoding="UTF-8"?>
<svg id="Layer_2" data-name="Layer 2" xmlns="http://www.w3.org/2000/svg" viewBox="0 0 623.91 199.84">
  <defs>
    <style>
      .cls-1 {
        fill: #8b5cf6;
      }
    </style>
  </defs>
  <g id="Layer_1-2" data-name="Layer 1">
    <g>
      <path class="cls-1" d="M225.93,49.8l-15.36-2.4C183.98,5.81,131.62-11.25,85.73,7.7c-19.61,8.1-35.93,21.97-47.55,39.78l-15.7,2.55c-2.73.44-4.27,2.63-4.27,5.41l.03,72.38c0,1.94.99,3.88,2.5,4.81l9.73,6.05c17.61,38.29,55.94,62.72,98.16,61.08,39.14-1.52,73.63-25.58,89.68-61.05l8.84-5.42c1.94-1.19,3.47-2.87,3.47-5.47V54.97c0-2.95-2.23-4.79-4.7-5.17ZM156.04,12.84c17.6,6.29,33.13,17.52,44.48,33.09l-75.95-11.75-76.24,11.83C72.93,12.42,116.81-1.17,156.04,12.84ZM137.72,191.5c-37.63,5.39-75.15-12.56-94.73-45.44l25.5,15.13c2.06,1.22,4.15,1.61,6.4.68l48.06-15.23c1.44-.46,3.34-.08,5.06.47l46.24,14.81c2.17.69,4.16.66,6.11-.5l25.28-14.95c-14.88,24.64-39.87,41.02-67.92,45.04ZM176.86,155.13l-45.12-14.27.03-98.16,91.6,14.05.02,70.48-46.53,27.89Z"/>
      <polygon class="cls-1" points="319.5 112.59 315.23 69.08 305.21 69.08 289.45 126.29 299.19 126.24 309.34 89.32 312.16 126.34 321.62 126.34 337.73 89.26 334.6 126.33 344.27 126.32 349.3 69.1 339.16 69.07 319.5 112.59"/>
      <polygon class="cls-1" points="379.8 112.34 375.35 69.08 365.59 69.03 349.79 126.13 359.43 126.31 369.52 89.24 372.36 126.32 381.84 126.28 397.92 89.19 394.94 126.27 404.7 126.23 409.42 69.15 399.41 69.02 379.8 112.34"/>
      <path class="cls-1" d="M453.78,75.35c-1.3-3.55-4.79-6.06-8.87-6.1l-23.23-.24-10.45,57.31,22.64-.06c4.95-.01,9.46-1.9,12.7-5.5,4.82-6.77,7.89-20.11-1.28-25.1,7.91-3.51,10.36-13.36,8.49-20.32ZM434.06,116.53l-10.76.05,2.84-16.03,10.71-.03c2.19,0,4.1,1.7,4.36,3.86.66,5.49-1.39,12.14-7.14,12.16ZM438.75,91.75c-3.66.47-7.2.22-11,.18l2.45-13.22,10.01.16c2.44.04,4.04,1.9,3.85,4.74-.22,3.28-1.74,7.69-5.3,8.15Z"/>
      <polygon class="cls-1" points="570.16 69.05 563.11 106.53 549.41 69.1 541.01 69.07 530.31 126.25 540.41 126.36 547.61 89.01 561.32 126.38 569.79 126.2 580.3 69.1 570.16 69.05"/>
      <path class="cls-1" d="M623.9,83.71c-.05-3.94-1-7.51-3.19-10.68-2.6-2.43-5.95-3.91-9.69-3.92l-22.81-.06-10.54,57.21,22.29.02c6.18,0,11.5-2.96,15.04-7.94,6.05-7.34,9-25.46,8.9-34.62ZM608.87,109.91c-1.73,4.23-5.17,6.71-9.52,6.71h-9.59s6.92-37.8,6.92-37.8h11.04c3.42-.02,5.74,2.47,5.81,5.9.17,8.59-1.34,17.09-4.65,25.19Z"/>
      <path class="cls-1" d="M504.86,101.97l19.75-.6,1.58-8.57-19.71-.75,1.82-8.86c.5-2.44,2.74-4.19,5.35-4.21l18.54-.1,1.61-8.88c-7.56-.53-14.47-1.12-21.79-.89-6.59.2-12.18,4.49-13.41,11.1l-6.84,36.76c-.53,2.86.59,6.11,2.91,7.67,1.96,1.32,4.73,2.07,7.11,2.05,7.45-.05,14.37-.5,21.95-1.08l1.65-9.07-19.56-.08c-.73,0-2.06-.6-2.47-1.11-.4-.51-.82-2.05-.69-2.69l2.19-10.7Z"/>
      <path class="cls-1" d="M467.66,115.45c-.49-.49-.89-2.15-.74-2.98l8.08-43.31-10.26-.08-8.64,46.29c-.54,2.91.14,6.31,2.02,8.37,1.66,1.82,4.54,2.6,7,2.6l19.81-.02,1.82-9.78-16.43-.06c-.79,0-2.17-.54-2.67-1.03Z"/>
      <polygon class="cls-1" points="282.79 69.07 272.31 126.3 282.56 126.19 292.94 69.11 282.79 69.07"/>
      <path class="cls-1" d="M243.37,65.93c-3.22-.15-6.2,1.79-6.2,5.32v37.86c0,3.61,2.76,5.77,6.52,5.49,2.86-.21,5.14-2.1,5.14-5.03l.03-38.34c0-3.25-2.46-5.15-5.49-5.3ZM243.14,111.7c-.98.06-3.06-.61-3.06-2.08v-38.83c.01-1.06,1.84-1.85,2.66-1.89.9-.05,3.18.48,3.18,1.8l.05,38.75c0,1.68-1.87,2.2-2.83,2.26Z"/>
      <path class="cls-1" d="M5.79,65.95C2.6,66,0,67.89,0,71.26v37.86c0,3.45,2.4,5.62,6.06,5.51,3.29-.09,5.59-2.25,5.59-5.51v-37.87c.01-3.41-2.71-5.35-5.86-5.31ZM6.05,111.72c-.86.07-3.11-.48-3.11-1.65l-.02-39.27c0-1.11,1.86-1.89,2.69-1.92.92-.03,3.12.55,3.12,1.91v38.58c.01,1.69-1.8,2.27-2.68,2.34Z"/>
      <polygon class="cls-1" points="172.11 109.81 172.16 125.12 188.68 125.06 188.6 109.76 172.11 109.81"/>
      <polygon class="cls-1" points="185.78 90.97 185.79 106.22 202.11 106.1 202.01 90.96 185.78 90.97"/>
      <path class="cls-1" d="M172.22,86.86l14.58-.14-.16-14.81-15.92.05-.17,13.24c0,.62.99,1.67,1.66,1.66Z"/>
      <rect class="cls-1" x="151.52" y="102.15" width="10.38" height="9.42"/>
      <polygon class="cls-1" points="175.48 91.46 165.73 91.4 165.67 100.3 175.51 100.21 175.48 91.46"/>
      <path class="cls-1" d="M137.32,161.45h-25.94c-2.77.01-4.53,2.66-4.36,5.03.16,2.08,2,4.39,4.57,4.38l25.82-.02c2.87,0,4.64-2.59,4.57-4.81-.08-2.32-1.99-4.58-4.66-4.58ZM136.91,168.19l-9.68-.04v-3.89s9.68-.08,9.68-.08c.96,0,2.17.97,2.23,1.84.08,1.17-.97,2.18-2.23,2.18Z"/>
    </g>
  </g>
</svg>